<?xml version="1.0" encoding="UTF-8"?>
<svg xmlns="http://www.w3.org/2000/svg" xmlns:xlink="http://www.w3.org/1999/xlink" width="35pt" height="35pt" viewBox="0 0 35 35" version="1.1">
<g id="surface1">
<path style=" stroke:none;fill-rule:nonzero;fill:rgb(100%,52.54902%,34.901961%);fill-opacity:1;" d="M 31.132812 34.878906 L 16.144531 34.878906 C 14.078125 34.878906 12.398438 33.195312 12.398438 31.132812 L 12.398438 13.417969 C 12.398438 13.199219 12.46875 12.980469 12.601562 12.804688 L 18.730469 4.632812 C 18.925781 4.375 19.230469 4.222656 19.550781 4.222656 L 27.726562 4.222656 C 28.046875 4.222656 28.347656 4.375 28.542969 4.632812 L 34.675781 12.804688 C 34.804688 12.980469 34.878906 13.199219 34.878906 13.417969 L 34.878906 31.132812 C 34.878906 33.195312 33.195312 34.878906 31.132812 34.878906 Z M 31.132812 34.878906 "/>
<path style=" stroke:none;fill-rule:nonzero;fill:rgb(100%,38.823529%,14.901961%);fill-opacity:1;" d="M 34.675781 12.804688 L 28.542969 4.632812 C 28.347656 4.375 28.046875 4.222656 27.726562 4.222656 L 23.640625 4.222656 L 23.640625 34.878906 L 31.132812 34.878906 C 33.195312 34.878906 34.878906 33.195312 34.878906 31.132812 L 34.878906 13.417969 C 34.878906 13.199219 34.804688 12.980469 34.675781 12.804688 Z M 34.675781 12.804688 "/>
<path style=" stroke:none;fill-rule:nonzero;fill:rgb(100%,94.509804%,41.960784%);fill-opacity:1;" d="M 11.691406 30.164062 L 1.09375 19.566406 C -0.367188 18.105469 -0.367188 15.730469 1.09375 14.265625 L 13.621094 1.742188 C 13.777344 1.589844 13.976562 1.484375 14.195312 1.457031 L 24.3125 0.0117188 C 24.628906 -0.0351562 24.953125 0.0703125 25.179688 0.300781 L 30.960938 6.078125 C 31.1875 6.308594 31.292969 6.628906 31.246094 6.945312 L 29.804688 17.0625 C 29.773438 17.28125 29.667969 17.484375 29.511719 17.640625 L 16.992188 30.164062 C 15.53125 31.625 13.152344 31.625 11.691406 30.164062 Z M 11.691406 30.164062 "/>
<path style=" stroke:none;fill-rule:nonzero;fill:rgb(100%,70.588235%,32.941176%);fill-opacity:1;" d="M 29.804688 17.0625 L 31.246094 6.945312 C 31.292969 6.628906 31.1875 6.308594 30.960938 6.078125 L 28.070312 3.191406 L 6.398438 24.863281 L 11.691406 30.164062 C 13.152344 31.625 15.53125 31.625 16.992188 30.164062 L 29.511719 17.640625 C 29.667969 17.484375 29.773438 17.28125 29.804688 17.0625 Z M 29.804688 17.0625 "/>
<path style=" stroke:none;fill-rule:nonzero;fill:rgb(100%,43.921569%,21.960784%);fill-opacity:1;" d="M 12.171875 23.902344 C 11.910156 23.640625 11.800781 23.234375 11.925781 22.855469 L 16.746094 8.40625 C 16.925781 7.871094 17.5 7.582031 18.035156 7.761719 C 18.574219 7.9375 18.859375 8.515625 18.683594 9.050781 L 13.867188 23.5 C 13.6875 24.039062 13.109375 24.324219 12.578125 24.148438 C 12.417969 24.097656 12.285156 24.011719 12.171875 23.902344 Z M 12.171875 23.902344 "/>
<path style=" stroke:none;fill-rule:nonzero;fill:rgb(100%,25.098039%,36.078431%);fill-opacity:1;" d="M 23.738281 13.785156 C 22.539062 12.589844 20.59375 12.589844 19.398438 13.785156 C 18.199219 14.980469 18.199219 16.925781 19.398438 18.121094 C 20.59375 19.316406 22.539062 19.316406 23.738281 18.121094 C 24.933594 16.925781 24.933594 14.980469 23.738281 13.785156 Z M 22.289062 16.675781 C 21.890625 17.078125 21.242188 17.078125 20.84375 16.675781 C 20.445312 16.277344 20.445312 15.628906 20.84375 15.230469 C 21.242188 14.835938 21.890625 14.835938 22.289062 15.230469 C 22.691406 15.628906 22.691406 16.277344 22.289062 16.675781 Z M 22.289062 16.675781 "/>
<path style=" stroke:none;fill-rule:nonzero;fill:rgb(100%,43.921569%,21.960784%);fill-opacity:1;" d="M 11.210938 13.785156 C 10.015625 12.589844 8.070312 12.589844 6.875 13.785156 C 5.679688 14.980469 5.679688 16.925781 6.875 18.121094 C 8.070312 19.316406 10.015625 19.316406 11.210938 18.121094 C 12.410156 16.925781 12.410156 14.980469 11.210938 13.785156 Z M 9.765625 16.675781 C 9.367188 17.078125 8.71875 17.078125 8.320312 16.675781 C 7.921875 16.277344 7.921875 15.628906 8.320312 15.230469 C 8.71875 14.835938 9.367188 14.835938 9.765625 15.230469 C 10.164062 15.628906 10.164062 16.277344 9.765625 16.675781 Z M 9.765625 16.675781 "/>
<path style=" stroke:none;fill-rule:nonzero;fill:rgb(100%,25.098039%,36.078431%);fill-opacity:1;" d="M 13.867188 23.5 L 16.921875 14.335938 L 13.691406 17.570312 L 11.925781 22.855469 C 11.800781 23.234375 11.910156 23.640625 12.171875 23.902344 C 12.285156 24.011719 12.417969 24.097656 12.574219 24.148438 C 13.109375 24.324219 13.6875 24.039062 13.867188 23.5 Z M 13.867188 23.5 "/>
<path style=" stroke:none;fill-rule:nonzero;fill:rgb(0%,25.882353%,60.784314%);fill-opacity:1;" d="M 30.960938 0.300781 C 30.558594 -0.101562 29.914062 -0.101562 29.511719 0.300781 L 23.738281 6.078125 L 25.179688 7.523438 L 30.960938 1.742188 C 31.359375 1.347656 31.359375 0.699219 30.960938 0.300781 Z M 30.960938 0.300781 "/>
<path style=" stroke:none;fill-rule:nonzero;fill:rgb(0%,14.901961%,34.901961%);fill-opacity:1;" d="M 30.960938 1.742188 C 31.359375 1.347656 31.359375 0.699219 30.960938 0.300781 L 24.457031 6.800781 L 25.179688 7.523438 Z M 30.960938 1.742188 "/>
<path style=" stroke:none;fill-rule:nonzero;fill:rgb(100%,52.54902%,34.901961%);fill-opacity:1;" d="M 25.898438 9.269531 C 25.640625 9.269531 25.378906 9.167969 25.179688 8.96875 L 22.289062 6.078125 C 21.890625 5.683594 21.890625 5.03125 22.289062 4.636719 C 22.691406 4.234375 23.332031 4.234375 23.738281 4.636719 L 26.625 7.523438 C 27.023438 7.921875 27.023438 8.570312 26.625 8.96875 C 26.425781 9.167969 26.164062 9.269531 25.898438 9.269531 Z M 25.898438 9.269531 "/>
<path style=" stroke:none;fill-rule:nonzero;fill:rgb(100%,38.823529%,14.901961%);fill-opacity:1;" d="M 26.625 7.523438 L 25.179688 6.078125 L 23.738281 7.523438 L 25.179688 8.96875 C 25.378906 9.167969 25.640625 9.269531 25.898438 9.269531 C 26.164062 9.269531 26.425781 9.167969 26.625 8.96875 C 27.023438 8.570312 27.023438 7.921875 26.625 7.523438 Z M 26.625 7.523438 "/>
</g>
</svg>
